<mxfile host="Electron" modified="2024-10-26T09:12:17.354Z" agent="Mozilla/5.0 (Windows NT 10.0; Win64; x64) AppleWebKit/537.36 (KHTML, like Gecko) draw.io/22.0.3 Chrome/114.0.5735.289 Electron/25.8.4 Safari/537.36" etag="h5iXOL9d3qL6nEUQCQYF" version="22.0.3" type="device">
  <diagram name="Página-1" id="lBFEm7apSHeBJ7PBgzMW">
    <mxGraphModel dx="778" dy="708" grid="1" gridSize="10" guides="1" tooltips="1" connect="1" arrows="1" fold="1" page="1" pageScale="1" pageWidth="827" pageHeight="1169" math="0" shadow="0">
      <root>
        <mxCell id="0" />
        <mxCell id="1" parent="0" />
        <mxCell id="-DII_cq54vkUjf8njdEe-3" value="" style="edgeStyle=orthogonalEdgeStyle;rounded=0;orthogonalLoop=1;jettySize=auto;html=1;entryX=0.5;entryY=0;entryDx=0;entryDy=0;" edge="1" parent="1" source="-DII_cq54vkUjf8njdEe-1" target="-DII_cq54vkUjf8njdEe-4">
          <mxGeometry relative="1" as="geometry">
            <mxPoint x="414" y="180" as="targetPoint" />
          </mxGeometry>
        </mxCell>
        <mxCell id="-DII_cq54vkUjf8njdEe-1" value="Inicio" style="rounded=1;whiteSpace=wrap;html=1;fillColor=#d5e8d4;strokeColor=#82b366;fontStyle=1" vertex="1" parent="1">
          <mxGeometry x="354" y="40" width="120" height="60" as="geometry" />
        </mxCell>
        <mxCell id="-DII_cq54vkUjf8njdEe-9" value="" style="edgeStyle=orthogonalEdgeStyle;rounded=0;orthogonalLoop=1;jettySize=auto;html=1;" edge="1" parent="1" source="-DII_cq54vkUjf8njdEe-4" target="-DII_cq54vkUjf8njdEe-7">
          <mxGeometry relative="1" as="geometry" />
        </mxCell>
        <mxCell id="-DII_cq54vkUjf8njdEe-4" value="Inicializar MPI" style="rounded=0;whiteSpace=wrap;html=1;fillColor=#dae8fc;strokeColor=#6c8ebf;" vertex="1" parent="1">
          <mxGeometry x="354" y="130" width="120" height="60" as="geometry" />
        </mxCell>
        <mxCell id="-DII_cq54vkUjf8njdEe-11" value="" style="edgeStyle=orthogonalEdgeStyle;rounded=0;orthogonalLoop=1;jettySize=auto;html=1;" edge="1" parent="1" source="-DII_cq54vkUjf8njdEe-7" target="-DII_cq54vkUjf8njdEe-10">
          <mxGeometry relative="1" as="geometry" />
        </mxCell>
        <mxCell id="-DII_cq54vkUjf8njdEe-13" value="" style="edgeStyle=orthogonalEdgeStyle;rounded=0;orthogonalLoop=1;jettySize=auto;html=1;" edge="1" parent="1" source="-DII_cq54vkUjf8njdEe-7" target="-DII_cq54vkUjf8njdEe-12">
          <mxGeometry relative="1" as="geometry" />
        </mxCell>
        <mxCell id="-DII_cq54vkUjf8njdEe-7" value="rank&lt;br&gt;==&lt;br&gt;RANK_MASTER" style="rhombus;whiteSpace=wrap;html=1;rounded=0;fillColor=#ffe6cc;strokeColor=#d79b00;" vertex="1" parent="1">
          <mxGeometry x="347" y="220" width="134" height="140" as="geometry" />
        </mxCell>
        <mxCell id="-DII_cq54vkUjf8njdEe-15" value="" style="edgeStyle=orthogonalEdgeStyle;rounded=0;orthogonalLoop=1;jettySize=auto;html=1;" edge="1" parent="1" source="-DII_cq54vkUjf8njdEe-10" target="-DII_cq54vkUjf8njdEe-14">
          <mxGeometry relative="1" as="geometry" />
        </mxCell>
        <mxCell id="-DII_cq54vkUjf8njdEe-33" style="edgeStyle=orthogonalEdgeStyle;rounded=0;orthogonalLoop=1;jettySize=auto;html=1;entryX=0.5;entryY=0;entryDx=0;entryDy=0;fillColor=#f8cecc;strokeColor=#b85450;" edge="1" parent="1" source="-DII_cq54vkUjf8njdEe-10" target="-DII_cq54vkUjf8njdEe-26">
          <mxGeometry relative="1" as="geometry" />
        </mxCell>
        <mxCell id="-DII_cq54vkUjf8njdEe-10" value="rank&lt;br&gt;==&lt;br&gt;RANK_WORKER" style="rhombus;whiteSpace=wrap;html=1;rounded=0;fillColor=#ffe6cc;strokeColor=#d79b00;" vertex="1" parent="1">
          <mxGeometry x="347" y="390" width="134" height="140" as="geometry" />
        </mxCell>
        <mxCell id="-DII_cq54vkUjf8njdEe-17" value="" style="edgeStyle=orthogonalEdgeStyle;rounded=0;orthogonalLoop=1;jettySize=auto;html=1;" edge="1" parent="1" source="-DII_cq54vkUjf8njdEe-12" target="-DII_cq54vkUjf8njdEe-16">
          <mxGeometry relative="1" as="geometry" />
        </mxCell>
        <mxCell id="-DII_cq54vkUjf8njdEe-12" value="While(True)" style="shape=parallelogram;perimeter=parallelogramPerimeter;whiteSpace=wrap;html=1;fixedSize=1;fillColor=#e1d5e7;strokeColor=#9673a6;" vertex="1" parent="1">
          <mxGeometry x="170" y="260" width="120" height="60" as="geometry" />
        </mxCell>
        <mxCell id="-DII_cq54vkUjf8njdEe-19" value="" style="edgeStyle=orthogonalEdgeStyle;rounded=0;orthogonalLoop=1;jettySize=auto;html=1;" edge="1" parent="1" source="-DII_cq54vkUjf8njdEe-14" target="-DII_cq54vkUjf8njdEe-18">
          <mxGeometry relative="1" as="geometry" />
        </mxCell>
        <mxCell id="-DII_cq54vkUjf8njdEe-14" value="While(True)" style="shape=parallelogram;perimeter=parallelogramPerimeter;whiteSpace=wrap;html=1;fixedSize=1;rounded=0;fillColor=#e1d5e7;strokeColor=#9673a6;" vertex="1" parent="1">
          <mxGeometry x="540" y="430" width="120" height="60" as="geometry" />
        </mxCell>
        <mxCell id="-DII_cq54vkUjf8njdEe-21" value="" style="edgeStyle=orthogonalEdgeStyle;rounded=0;orthogonalLoop=1;jettySize=auto;html=1;" edge="1" parent="1" source="-DII_cq54vkUjf8njdEe-16" target="-DII_cq54vkUjf8njdEe-20">
          <mxGeometry relative="1" as="geometry" />
        </mxCell>
        <mxCell id="-DII_cq54vkUjf8njdEe-16" value="Introducir número" style="whiteSpace=wrap;html=1;fillColor=#dae8fc;strokeColor=#6c8ebf;" vertex="1" parent="1">
          <mxGeometry x="170" y="430" width="120" height="60" as="geometry" />
        </mxCell>
        <mxCell id="-DII_cq54vkUjf8njdEe-30" value="" style="edgeStyle=orthogonalEdgeStyle;rounded=0;orthogonalLoop=1;jettySize=auto;html=1;" edge="1" parent="1" source="-DII_cq54vkUjf8njdEe-18" target="-DII_cq54vkUjf8njdEe-29">
          <mxGeometry relative="1" as="geometry" />
        </mxCell>
        <mxCell id="-DII_cq54vkUjf8njdEe-18" value="Recibir número" style="whiteSpace=wrap;html=1;rounded=0;fillColor=#dae8fc;strokeColor=#6c8ebf;" vertex="1" parent="1">
          <mxGeometry x="540" y="530" width="120" height="60" as="geometry" />
        </mxCell>
        <mxCell id="-DII_cq54vkUjf8njdEe-25" style="edgeStyle=orthogonalEdgeStyle;rounded=0;orthogonalLoop=1;jettySize=auto;html=1;entryX=0;entryY=0.5;entryDx=0;entryDy=0;dashed=1;shape=link;strokeWidth=1;" edge="1" parent="1" source="-DII_cq54vkUjf8njdEe-20" target="-DII_cq54vkUjf8njdEe-18">
          <mxGeometry relative="1" as="geometry" />
        </mxCell>
        <mxCell id="-DII_cq54vkUjf8njdEe-32" value="" style="edgeStyle=orthogonalEdgeStyle;rounded=0;orthogonalLoop=1;jettySize=auto;html=1;" edge="1" parent="1" source="-DII_cq54vkUjf8njdEe-20" target="-DII_cq54vkUjf8njdEe-31">
          <mxGeometry relative="1" as="geometry" />
        </mxCell>
        <mxCell id="-DII_cq54vkUjf8njdEe-20" value="Enviar número" style="whiteSpace=wrap;html=1;fillColor=#dae8fc;strokeColor=#6c8ebf;" vertex="1" parent="1">
          <mxGeometry x="170" y="530" width="120" height="60" as="geometry" />
        </mxCell>
        <mxCell id="-DII_cq54vkUjf8njdEe-26" value="Finalizar MPI&lt;br&gt;y Fin (0)" style="rounded=1;whiteSpace=wrap;html=1;fontStyle=1;fillColor=#d5e8d4;strokeColor=#82b366;" vertex="1" parent="1">
          <mxGeometry x="354" y="740" width="120" height="60" as="geometry" />
        </mxCell>
        <mxCell id="-DII_cq54vkUjf8njdEe-36" style="edgeStyle=orthogonalEdgeStyle;rounded=0;orthogonalLoop=1;jettySize=auto;html=1;entryX=0.5;entryY=0;entryDx=0;entryDy=0;fillColor=#f8cecc;strokeColor=#b85450;" edge="1" parent="1" source="-DII_cq54vkUjf8njdEe-29" target="-DII_cq54vkUjf8njdEe-26">
          <mxGeometry relative="1" as="geometry" />
        </mxCell>
        <mxCell id="-DII_cq54vkUjf8njdEe-41" value="" style="edgeStyle=orthogonalEdgeStyle;rounded=0;orthogonalLoop=1;jettySize=auto;html=1;" edge="1" parent="1" source="-DII_cq54vkUjf8njdEe-29" target="-DII_cq54vkUjf8njdEe-40">
          <mxGeometry relative="1" as="geometry" />
        </mxCell>
        <mxCell id="-DII_cq54vkUjf8njdEe-29" value="numero&lt;br&gt;==&lt;br&gt;-1" style="rhombus;whiteSpace=wrap;html=1;rounded=0;fillColor=#ffe6cc;strokeColor=#d79b00;" vertex="1" parent="1">
          <mxGeometry x="556" y="640" width="88" height="90" as="geometry" />
        </mxCell>
        <mxCell id="-DII_cq54vkUjf8njdEe-37" style="edgeStyle=orthogonalEdgeStyle;rounded=0;orthogonalLoop=1;jettySize=auto;html=1;entryX=0.5;entryY=0;entryDx=0;entryDy=0;fillColor=#f8cecc;strokeColor=#b85450;" edge="1" parent="1" source="-DII_cq54vkUjf8njdEe-31" target="-DII_cq54vkUjf8njdEe-26">
          <mxGeometry relative="1" as="geometry" />
        </mxCell>
        <mxCell id="-DII_cq54vkUjf8njdEe-39" value="" style="edgeStyle=orthogonalEdgeStyle;rounded=0;orthogonalLoop=1;jettySize=auto;html=1;" edge="1" parent="1" source="-DII_cq54vkUjf8njdEe-31" target="-DII_cq54vkUjf8njdEe-38">
          <mxGeometry relative="1" as="geometry" />
        </mxCell>
        <mxCell id="-DII_cq54vkUjf8njdEe-31" value="numero&lt;br style=&quot;border-color: var(--border-color);&quot;&gt;==&lt;br style=&quot;border-color: var(--border-color);&quot;&gt;-1" style="rhombus;whiteSpace=wrap;html=1;fillColor=#ffe6cc;strokeColor=#d79b00;" vertex="1" parent="1">
          <mxGeometry x="185" y="640" width="90" height="90" as="geometry" />
        </mxCell>
        <mxCell id="-DII_cq54vkUjf8njdEe-46" value="" style="edgeStyle=orthogonalEdgeStyle;rounded=0;orthogonalLoop=1;jettySize=auto;html=1;" edge="1" parent="1" source="-DII_cq54vkUjf8njdEe-38" target="-DII_cq54vkUjf8njdEe-45">
          <mxGeometry relative="1" as="geometry" />
        </mxCell>
        <mxCell id="-DII_cq54vkUjf8njdEe-38" value="Recibir número" style="whiteSpace=wrap;html=1;fillColor=#dae8fc;strokeColor=#6c8ebf;" vertex="1" parent="1">
          <mxGeometry x="170" y="870" width="120" height="60" as="geometry" />
        </mxCell>
        <mxCell id="-DII_cq54vkUjf8njdEe-43" value="" style="edgeStyle=orthogonalEdgeStyle;rounded=0;orthogonalLoop=1;jettySize=auto;html=1;" edge="1" parent="1" source="-DII_cq54vkUjf8njdEe-40" target="-DII_cq54vkUjf8njdEe-42">
          <mxGeometry relative="1" as="geometry" />
        </mxCell>
        <mxCell id="-DII_cq54vkUjf8njdEe-40" value="Calcular factorial" style="whiteSpace=wrap;html=1;rounded=0;fillColor=#dae8fc;strokeColor=#6c8ebf;" vertex="1" parent="1">
          <mxGeometry x="540" y="770" width="120" height="60" as="geometry" />
        </mxCell>
        <mxCell id="-DII_cq54vkUjf8njdEe-44" style="edgeStyle=orthogonalEdgeStyle;rounded=0;orthogonalLoop=1;jettySize=auto;html=1;entryX=1;entryY=0.5;entryDx=0;entryDy=0;shape=link;dashed=1;" edge="1" parent="1" source="-DII_cq54vkUjf8njdEe-42" target="-DII_cq54vkUjf8njdEe-38">
          <mxGeometry relative="1" as="geometry" />
        </mxCell>
        <mxCell id="-DII_cq54vkUjf8njdEe-48" style="edgeStyle=orthogonalEdgeStyle;rounded=0;orthogonalLoop=1;jettySize=auto;html=1;entryX=1;entryY=0.5;entryDx=0;entryDy=0;exitX=1;exitY=0.5;exitDx=0;exitDy=0;" edge="1" parent="1" source="-DII_cq54vkUjf8njdEe-42" target="-DII_cq54vkUjf8njdEe-14">
          <mxGeometry relative="1" as="geometry">
            <Array as="points">
              <mxPoint x="680" y="900" />
              <mxPoint x="680" y="460" />
            </Array>
          </mxGeometry>
        </mxCell>
        <mxCell id="-DII_cq54vkUjf8njdEe-42" value="Enviar número" style="whiteSpace=wrap;html=1;rounded=0;fillColor=#dae8fc;strokeColor=#6c8ebf;" vertex="1" parent="1">
          <mxGeometry x="540" y="870" width="120" height="60" as="geometry" />
        </mxCell>
        <mxCell id="-DII_cq54vkUjf8njdEe-47" style="edgeStyle=orthogonalEdgeStyle;rounded=0;orthogonalLoop=1;jettySize=auto;html=1;entryX=0;entryY=0.5;entryDx=0;entryDy=0;exitX=0;exitY=0.5;exitDx=0;exitDy=0;" edge="1" parent="1" source="-DII_cq54vkUjf8njdEe-45" target="-DII_cq54vkUjf8njdEe-12">
          <mxGeometry relative="1" as="geometry">
            <Array as="points">
              <mxPoint x="150" y="1000" />
              <mxPoint x="150" y="290" />
            </Array>
          </mxGeometry>
        </mxCell>
        <mxCell id="-DII_cq54vkUjf8njdEe-45" value="Mostrar Resultado" style="whiteSpace=wrap;html=1;fillColor=#dae8fc;strokeColor=#6c8ebf;" vertex="1" parent="1">
          <mxGeometry x="170" y="970" width="120" height="60" as="geometry" />
        </mxCell>
      </root>
    </mxGraphModel>
  </diagram>
</mxfile>
